HIERARCHY
ROOT Hips
{
	OFFSET 0.00000 0.00000 0.00000
	CHANNELS 6 Xposition Yposition Zposition Zrotation Yrotation Xrotation 
	JOINT LHipJoint
	{
		OFFSET 0 0 0
		CHANNELS 3 Zrotation Yrotation Xrotation
		JOINT LeftHip
		{
			OFFSET 1.48831 -1.59570 0.95625
			CHANNELS 3 Zrotation Yrotation Xrotation
			JOINT LeftKnee
			{
				OFFSET 2.20856 -6.06797 0.00000
				CHANNELS 3 Zrotation Yrotation Xrotation
				JOINT LeftAnkle
				{
					OFFSET 2.62924 -7.22379 0.00000
					CHANNELS 3 Zrotation Yrotation Xrotation
					JOINT LeftToe
					{
						OFFSET 0.16802 -0.46163 2.41673
						CHANNELS 3 Zrotation Yrotation Xrotation
						End Site
						{
							OFFSET 0.00000 -0.00000 1.23760
						}
					}
				}
			}
		}
	}
	JOINT RHipJoint
	{
		OFFSET 0 0 0
		CHANNELS 3 Zrotation Yrotation Xrotation
		JOINT RightHip
		{
			OFFSET -1.56796 -1.59570 0.95625
			CHANNELS 3 Zrotation Yrotation Xrotation
			JOINT RightKnee
			{
				OFFSET -2.29239 -6.29829 0.00000
				CHANNELS 3 Zrotation Yrotation Xrotation
				JOINT RightAnkle
				{
					OFFSET -2.66963 -7.33475 0.00000
					CHANNELS 3 Zrotation Yrotation Xrotation
					JOINT RightToe
					{
						OFFSET -0.18185 -0.49964 2.34359
						CHANNELS 3 Zrotation Yrotation Xrotation
						End Site
						{
							OFFSET -0.00000 -0.00000 1.20477
						}
					}
				}
			}
		}
	}
	JOINT lowerback
	{
		OFFSET 0 0 0
		CHANNELS 3 Zrotation Yrotation Xrotation
		JOINT Chest
		{
			OFFSET 0.03505 2.15832 -0.34324
			CHANNELS 3 Zrotation Yrotation Xrotation
			JOINT Chest2
			{
				OFFSET -0.01089 2.17963 0.04689
				CHANNELS 3 Zrotation Yrotation Xrotation
				JOINT lowerneck
				{
					OFFSET 0 0 0
					CHANNELS 3 Zrotation Yrotation Xrotation
					JOINT Neck
					{
						OFFSET 0.04686 1.69404 0.22159
						CHANNELS 3 Zrotation Yrotation Xrotation
						JOINT Head
						{
							OFFSET 0.00265 1.69305 -0.01513
							CHANNELS 3 Zrotation Yrotation Xrotation
							End Site
							{
								OFFSET -0.00415 1.80215 -0.03034
							}
						}
					}
				}
				JOINT LeftCollar
				{
					OFFSET 0 0 0
					CHANNELS 3 Zrotation Yrotation Xrotation
					JOINT LeftShoulder
					{
						OFFSET 3.67184 1.11724 -0.19002
CHANNELS 3 Zrotation Xrotation Yrotation
						JOINT LeftElbow
						{
OFFSET 0 -5.177140 -0.000000
CHANNELS 3 Zrotation Xrotation Yrotation
							JOINT LeftWrist
							{
OFFSET 0 -3.436790 -0.000000
CHANNELS 3 Zrotation Xrotation Yrotation
								JOINT lhand
								{
									OFFSET 0 0 0
CHANNELS 3 Zrotation Xrotation Yrotation
									JOINT LFingers
									{
OFFSET 0 -0.573120 -0.000000
CHANNELS 3 Zrotation Xrotation Yrotation
										End Site
										{
OFFSET 0 -0.462060 -0.000000
										}
									}
								}
								JOINT LThumb
								{
OFFSET 0 0.000000 0.000000
CHANNELS 3 Zrotation Xrotation Yrotation
									End Site
									{
OFFSET 0 -0.469120 0.469120
									}
								}
							}
						}
					}
				}
				JOINT RightCollar
				{
					OFFSET 0 0 0
					CHANNELS 3 Zrotation Yrotation Xrotation
					JOINT RightShoulder
					{
						OFFSET -3.59596 0.95831 -0.26050
CHANNELS 3 Zrotation Xrotation Yrotation
						JOINT RightElbow
						{
OFFSET 0 -5.239080 -0.000000
CHANNELS 3 Zrotation Xrotation Yrotation
							JOINT RightWrist
							{
OFFSET 0 -3.464850 -0.000000
CHANNELS 3 Zrotation Xrotation Yrotation
								JOINT rhand
								{
									OFFSET 0 0 0
CHANNELS 3 Zrotation Xrotation Yrotation
									JOINT RFingers
									{
OFFSET 0 -0.608750 -0.000000
CHANNELS 3 Zrotation Xrotation Yrotation
										End Site
										{
OFFSET 0 -0.490790 -0.000000
										}
									}
								}
								JOINT RThumb
								{
OFFSET 0 0.000000 0.000000
CHANNELS 3 Zrotation Xrotation Yrotation
									End Site
									{
OFFSET 0 -0.498290 0.498290
									}
								}
							}
						}
					}
				}
			}
		}
	}
}
MOTION
Frames: 5
Frame Time: 0.008333333333333333
-6.164992 16.185806 2.388981 -1988.286778 -58.369198 1989.526444 0.000000 0.000000 0.000000 -18.575542 14.163203 -4.517938 1.320558 7.277727 20.540995 1.199600 0.903007 -21.048549 0.171751 -2.665762 -7.349711 0.000000 0.000000 0.000000 6.596201 10.524834 -11.768397 -6.031402 -14.458306 45.106899 -4.630122 -16.205656 -48.072622 -0.905699 -6.063286 16.968467 0.085306 -2.538943 4.777685 -1.707285 -3.468231 -1.326977 -1.519532 -1.755370 -4.159269 -1.378559 -0.207401 7.127224 1.298452 -0.479759 -13.990648 0.672304 -0.339064 -5.378387 0.000000 0.000000 0.000000 16.656632 -11.164057 -32.455981 54.968848 -54.807405 30.191857 16.930186 -32.235566 -1.010976 0.000000 0.000000 0.000000 -7.125000 0.000000 0.000000 -7.664315 30.983375 -2.645653 0.000000 0.000000 0.000000 -16.859005 18.279856 6.230890 -13.671127 -22.258811 -2.704744 -21.411911 5.838953 5.028874 0.000000 0.000000 0.000000 7.125000 0.000000 0.000000 4.385540 35.351755 1.041984
-6.286518 16.254695 1.866310 -1987.189115 -49.180541 1989.191336 0.000000 0.000000 0.000000 -18.358774 15.023247 -1.002709 1.045883 6.503550 18.252702 0.792976 7.487513 -21.158223 0.709410 -5.381944 -15.001477 0.000000 0.000000 0.000000 6.163105 16.158949 -9.976320 -5.093851 -13.488434 41.225959 -2.827221 -17.848777 -41.840436 -0.147457 -2.474293 6.818276 1.278328 -2.758841 4.722196 0.000867 -3.601762 -1.336572 -0.416908 -1.821011 -4.104022 1.050667 1.010780 11.218161 0.099331 1.365161 -16.572805 -0.255076 0.483626 -6.903942 0.000000 0.000000 0.000000 14.533777 -3.161827 -26.265575 30.509108 -41.298189 11.754437 17.528561 -29.464250 -3.744620 0.000000 0.000000 0.000000 -7.125000 0.000000 0.000000 -7.451416 33.835869 -2.055351 0.000000 0.000000 0.000000 -15.105382 13.215056 11.590354 -22.550127 -33.589211 -6.889523 -21.958169 -1.380837 5.454426 0.000000 0.000000 0.000000 7.125000 0.000000 0.000000 3.967570 35.834522 0.895634
-6.418440 16.424247 1.090071 -1985.593155 -43.492910 1988.567780 0.000000 0.000000 0.000000 -16.202433 16.317133 -1.782434 1.560992 7.881672 22.356766 -0.004644 12.818749 -18.168103 1.173370 -6.875592 -19.347307 0.000000 0.000000 0.000000 9.283936 18.857324 -6.092295 -4.012000 -12.176099 36.358022 -2.719075 -18.077213 -41.535159 -0.044086 -1.351317 3.715928 2.650718 -3.099584 3.875671 1.125274 -3.975938 -1.150479 -0.048389 -2.027750 -3.456297 2.577038 1.639810 13.418012 -0.111235 2.611480 -15.587531 -0.706816 1.046182 -6.941390 0.000000 0.000000 0.000000 7.662249 1.694331 -8.453135 11.042672 -18.348815 1.793209 21.095409 -13.820593 -6.216868 0.000000 0.000000 0.000000 -7.125000 0.000000 0.000000 -4.761500 36.603542 -0.986286 0.000000 0.000000 0.000000 -8.983824 10.920375 12.585468 -28.501541 -39.573863 -10.441695 -23.043320 -2.152582 6.267859 0.000000 0.000000 0.000000 7.125000 0.000000 0.000000 3.126110 36.770607 0.633587
-6.575080 16.693963 0.329721 -1984.207012 -40.092427 1987.497863 0.000000 0.000000 0.000000 -13.146075 15.371859 -12.064564 5.070945 13.460857 41.123612 -1.369289 20.186388 -7.211144 0.309384 -3.566391 -9.860647 0.000000 0.000000 0.000000 10.730472 15.757534 -2.352762 -2.818184 -10.394506 30.264163 -1.033579 -17.917901 -32.722646 -0.051822 1.465101 -4.029707 3.794720 -3.120647 5.329007 1.745590 -3.887320 -0.644737 0.017199 -2.007399 -3.783148 3.122874 1.660717 13.612637 -0.082028 2.757242 -15.739125 -0.803390 1.071947 -7.015936 0.000000 0.000000 0.000000 -0.374085 8.331652 20.688942 3.843917 -6.623149 0.222620 20.275136 2.408099 -10.117094 0.000000 0.000000 0.000000 -7.125000 0.000000 0.000000 -5.958251 40.678733 -0.636983 0.000000 0.000000 0.000000 -4.136993 10.068466 12.328766 -26.300914 -37.504044 -9.070350 -25.090921 -0.933720 6.684191 0.000000 0.000000 0.000000 7.125000 0.000000 0.000000 1.422936 37.349717 0.267984
-6.824398 16.800250 -0.327706 -1980.028013 -39.292829 1984.406010 0.000000 0.000000 0.000000 -8.111977 12.466778 -25.711378 9.041464 16.834326 56.233328 -0.286922 9.446215 -3.328648 0.003333 -0.370313 -1.017369 0.000000 0.000000 0.000000 14.641494 12.795216 3.355183 -1.706045 -8.224800 23.399192 -0.264909 -17.185241 -26.596379 -0.277066 3.385393 -9.353592 6.161790 -2.520441 7.929878 2.591526 -2.790893 0.079638 -0.421705 -1.535283 -4.530363 2.757652 1.172477 13.800114 0.691259 2.130538 -17.054106 -0.437246 0.676806 -7.503389 0.000000 0.000000 0.000000 -7.327573 14.962085 24.283491 3.390482 -5.848693 0.173246 17.520512 1.483295 -9.460907 0.000000 0.000000 0.000000 -7.125000 0.000000 0.000000 -8.246227 39.760944 -1.073281 0.000000 0.000000 0.000000 -2.859799 10.288582 13.213828 -20.735057 -31.517477 -5.910932 -25.407761 -0.351201 6.737710 0.000000 0.000000 0.000000 7.125000 0.000000 0.000000 1.156761 37.428928 0.215575
